<?xml version="1.0" encoding="UTF-8"?>
<svg id="Layer_2" data-name="Layer 2" xmlns="http://www.w3.org/2000/svg" viewBox="0 0 483.42 440.51">
  <defs>
    <style>
      .cls-1 {
        stroke: #231f20;
        stroke-linecap: round;
        stroke-linejoin: round;
      }

      .cls-1, .cls-2 {
        fill: #e22e12;
      }
    </style>
  </defs>
  <g id="Layer_1-2" data-name="Layer 1">
    <g id="INSERT">
      <g id="SPLINE">
        <path class="cls-1" d="M127.35,198.14c13.49,20.67,20.29,44.34,22.41,60.39h24.63c-2.06-19.61-9.98-48.35-26.55-73.75-19.71-30.23-45.38-46.21-74.21-46.23h-.17c-21.99,0-42.57,9.88-56.48,27.12C2.35,183.79-3.19,207.23,1.79,229.98l23.9-5.23c-3.33-15.23.53-31.58,10.32-43.72,9.39-11.62,22.67-18.02,37.46-18.02h.12c25.52.02,43.32,19.11,53.76,35.13Z"/>
      </g>
      <g id="HATCH">
        <path class="cls-2" d="M127.34,198.14c13.49,20.67,20.29,44.34,22.41,60.39h24.63c-2.06-19.61-9.98-48.35-26.55-73.76-19.71-30.23-45.38-46.21-74.21-46.23h-.18c-21.99,0-42.57,9.88-56.48,27.12C2.34,183.79-3.19,207.23,1.79,229.98l23.9-5.23c-3.33-15.23.53-31.58,10.32-43.72,9.38-11.62,22.67-18.02,37.46-18.02h.12c25.52.02,43.32,19.11,53.76,35.13Z"/>
      </g>
      <g id="SPLINE-2" data-name="SPLINE">
        <path class="cls-1" d="M305.15,369.53c-9.58-13.25-16.56-29.12-19.64-44.39h-24.86c1.91,11.92,6.97,31.6,20.32,52.35-8.36,14-23.37,27.81-39.24,36.08,0,0-.02-.01-.03-.01,0,0-.02.01-.03.01-15.87-8.26-30.88-22.08-39.24-36.08,13.34-20.76,18.41-40.44,20.32-52.35h-24.86c-3.08,15.27-10.06,31.13-19.64,44.39l-4.16,5.78,2.97,6.48c10.39,22.66,34.37,45.38,59.68,56.54l4.92,2.18.04-.02.04.02,4.92-2.18c25.31-11.16,49.29-33.88,59.68-56.54l2.97-6.48-4.16-5.78Z"/>
      </g>
      <g id="HATCH-2" data-name="HATCH">
        <path class="cls-2" d="M305.15,369.53c-9.58-13.26-16.56-29.12-19.64-44.39h-24.86c1.91,11.92,6.97,31.6,20.32,52.35-8.36,14-23.37,27.81-39.24,36.08,0,0-.02,0-.03-.01,0,0-.02.01-.02.01-15.87-8.26-30.88-22.08-39.24-36.08,13.34-20.75,18.41-40.44,20.32-52.35h-24.86c-3.08,15.27-10.06,31.13-19.64,44.39l-4.16,5.78,2.97,6.48c10.39,22.66,34.37,45.38,59.68,56.54l4.92,2.17.04-.02.04.02,4.92-2.17c25.31-11.16,49.29-33.88,59.68-56.54l2.97-6.48-4.16-5.78Z"/>
      </g>
      <g id="SPLINE-3" data-name="SPLINE">
        <path class="cls-1" d="M356.08,198.14c-13.49,20.67-20.29,44.34-22.41,60.39h-24.63c2.06-19.61,9.98-48.35,26.55-73.75,19.71-30.23,45.38-46.21,74.21-46.23h.18c21.99,0,42.57,9.88,56.48,27.12,14.62,18.12,20.16,41.56,15.18,64.32l-23.89-5.23c3.33-15.23-.53-31.58-10.32-43.72-9.39-11.62-22.67-18.02-37.46-18.02h-.12c-25.51.02-43.32,19.11-53.76,35.13Z"/>
      </g>
      <g id="HATCH-3" data-name="HATCH">
        <path class="cls-2" d="M356.08,198.14c-13.49,20.67-20.29,44.34-22.41,60.39h-24.63c2.06-19.61,9.98-48.35,26.55-73.76,19.71-30.23,45.38-46.21,74.21-46.23h.18c21.99,0,42.57,9.88,56.48,27.12,14.62,18.12,20.16,41.56,15.18,64.31l-23.9-5.23c3.33-15.23-.53-31.58-10.32-43.72-9.38-11.62-22.67-18.02-37.45-18.02h-.12c-25.52.02-43.32,19.11-53.76,35.13Z"/>
      </g>
      <g id="INSERT-2" data-name="INSERT">
        <g id="SPLINE-4" data-name="SPLINE">
          <path class="cls-1" d="M198.96,258.52h24.63c-3.07-28.38-14.2-53.11-24.07-75.02-9.85-21.85-19.15-42.5-19.02-63.08.21-23.66,13.7-47.79,36.1-64.56,3.93-2.96,15.08-11.52,25.11-20.73,10.03,9.21,21.19,17.77,25.11,20.73,22.4,16.77,35.9,40.89,36.1,64.56.13,20.58-9.17,41.23-19.02,63.08-9.87,21.91-21,46.63-24.07,75.02h24.63c3.05-23.44,12.55-44.52,21.76-64.97,10.97-24.36,21.33-47.37,21.18-73.32-.28-31.28-17.44-62.64-45.89-83.94-3.36-2.54-20.82-15.84-30.85-26.65l-8.95-9.65-8.95,9.65c-10.04,10.81-27.49,24.11-30.85,26.65-28.46,21.3-45.61,52.66-45.89,83.94-.16,25.95,10.21,48.96,21.18,73.32,9.21,20.44,18.71,41.53,21.76,64.97Z"/>
        </g>
        <g id="HATCH-4" data-name="HATCH">
          <path class="cls-2" d="M198.96,258.52h24.63c-3.07-28.38-14.21-53.11-24.07-75.02-9.85-21.86-19.16-42.5-19.02-63.08.21-23.66,13.7-47.78,36.1-64.56,3.92-2.96,15.08-11.52,25.11-20.73,10.03,9.21,21.19,17.77,25.12,20.73,22.4,16.77,35.9,40.89,36.1,64.56.14,20.58-9.17,41.23-19.02,63.08-9.87,21.9-21,46.64-24.07,75.02h24.63c3.05-23.44,12.55-44.53,21.76-64.97,10.97-24.36,21.33-47.37,21.18-73.32-.28-31.28-17.44-62.64-45.89-83.94-3.36-2.54-20.81-15.84-30.85-26.65L241.71,0l-8.95,9.65c-10.03,10.81-27.49,24.11-30.85,26.65-28.46,21.3-45.61,52.66-45.89,83.94-.16,25.95,10.2,48.96,21.18,73.32,9.21,20.44,18.71,41.53,21.76,64.97Z"/>
        </g>
        <g id="POLYLINE">
          <polyline class="cls-1" points="101.96 280.11 101.96 303.56 381.46 303.56 381.46 280.11 101.96 280.11"/>
        </g>
        <g id="HATCH-5" data-name="HATCH">
          <polygon class="cls-2" points="101.96 280.11 101.96 303.56 381.46 303.56 381.46 280.11 101.96 280.11 101.96 280.11"/>
        </g>
      </g>
    </g>
  </g>
</svg>